<svg xmlns="http://www.w3.org/2000/svg" width="52" height="52" viewBox="0 0 52 52">
    <path data-name="패스 13837" d="M39.493 17.438a11.827 11.827 0 0 0-22.578-3.358 9.073 9.073 0 0 0-1.594-.146 9.879 9.879 0 0 0-9.982 9.75 8.428 8.428 0 0 0 .179 1.7A9.642 9.642 0 0 0 0 34.083a9.879 9.879 0 0 0 9.982 9.75h28.476A13.4 13.4 0 0 0 52 30.617a13.37 13.37 0 0 0-12.507-13.179zm-1.035 24.229H9.982a7.711 7.711 0 0 1-7.816-7.583 7.536 7.536 0 0 1 5.006-7.054 1.084 1.084 0 0 0 .66-1.315 7.232 7.232 0 0 1-.325-2.031 7.711 7.711 0 0 1 7.815-7.584 7.949 7.949 0 0 1 2.007.288 1.078 1.078 0 0 0 1.3-.713 9.635 9.635 0 0 1 18.744 2.808 1.083 1.083 0 0 0 1.083 1.083 11.229 11.229 0 0 1 11.375 11.05 11.229 11.229 0 0 1-11.375 11.05z" transform="translate(0 .583)" style="fill:#44b09b"/>
    <path data-name="패스 13838" d="M19.1 28.612a3.006 3.006 0 1 1 0-4.02 1.083 1.083 0 1 0 1.614-1.445 5.163 5.163 0 1 0-.005 6.921 1.083 1.083 0 1 0-1.6-1.456z" transform="translate(.976 1.786)" style="fill:#44b09b"/>
    <path data-name="패스 13839" d="M25.794 21.32a5.135 5.135 0 1 0 5.136 5.135 5.135 5.135 0 0 0-5.136-5.135zm0 8.1a2.968 2.968 0 1 1 2.968-2.968 2.968 2.968 0 0 1-2.968 2.971z" transform="translate(1.722 1.776)" style="fill:#44b09b"/>
    <path data-name="패스 13840" d="M35.893 32.2h-1.22a5.448 5.448 0 0 0 1.78-3.1 2.768 2.768 0 0 0-.913-2.251c-1.3-1.142-3.236-.627-4.4.439a1.084 1.084 0 0 0 1.462 1.6c.5-.458 1.231-.654 1.51-.412a.6.6 0 0 1 .183.459c-.063.835-1.742 2.457-3.271 3.449a1.083 1.083 0 0 0 .589 1.992h4.281a1.083 1.083 0 0 0 0-2.167z" transform="translate(2.544 2.183)" style="fill:#44b09b"/>
    <path data-name="패스 13841" d="M32.071 19.233a1.083 1.083 0 0 0 1.083-1.083A7.3 7.3 0 0 0 25.726 11a1.083 1.083 0 0 0 0 2.167 5.134 5.134 0 0 1 5.262 4.983 1.083 1.083 0 0 0 1.083 1.083z" transform="translate(2.054 .916)" style="fill:#44b09b"/>
</svg>
