<svg xmlns="http://www.w3.org/2000/svg" width="52" height="52" viewBox="0 0 52 52">
    <g data-name="그룹 45498">
        <g data-name="그룹 45497">
            <path data-name="패스 13835" d="M57.967 57.122a19.4 19.4 0 1 0 19.4 19.4 19.418 19.418 0 0 0-19.4-19.4zm12.727 9.213h-6.88a21.1 21.1 0 0 0-3.514-5.956 16.31 16.31 0 0 1 10.394 5.956zM53.38 74.973a24.861 24.861 0 0 1 .977-5.549h7.26a25.05 25.05 0 0 1 .938 5.549zm9.171 3.089a25.276 25.276 0 0 1-.965 5.549h-7.258a25.016 25.016 0 0 1-.948-5.549zM57.98 62.41a17.324 17.324 0 0 1 2.483 3.925h-4.938a18.046 18.046 0 0 1 2.455-3.925zm-2.325-2.035a21.635 21.635 0 0 0-3.51 5.96h-6.906a16.309 16.309 0 0 1 10.416-5.96zm-12.37 9.049h7.852a28.065 28.065 0 0 0-.85 5.549h-8.554a16.183 16.183 0 0 1 1.552-5.549zm0 14.187a16.182 16.182 0 0 1-1.552-5.549h8.555a28.34 28.34 0 0 0 .844 5.549zm1.954 3.089h6.9a21.037 21.037 0 0 0 3.54 5.963 16.309 16.309 0 0 1-10.44-5.963zm10.251 0h4.943A17.858 17.858 0 0 1 58 90.63a17.241 17.241 0 0 1-2.51-3.93zm4.841 5.953a21.471 21.471 0 0 0 3.476-5.953h6.887a16.31 16.31 0 0 1-10.363 5.953zm12.317-9.041H64.8a28.528 28.528 0 0 0 .842-5.549H74.2a16.182 16.182 0 0 1-1.552 5.548zm1.552-8.639h-8.553a28.36 28.36 0 0 0-.835-5.549h7.836a16.183 16.183 0 0 1 1.552 5.549z" transform="translate(-31.841 -47.209)" style="fill:#44b09b"/>
            <path data-name="패스 13836" d="M26.1 18.555H25.687A26.045 26.045 0 0 0 0 44.567a1.544 1.544 0 1 0 3.089 0 22.951 22.951 0 0 1 22.8-22.925 22.951 22.951 0 0 1 22.8 22.925 1.544 1.544 0 0 0 3.089 0A26.045 26.045 0 0 0 26.1 18.555z" transform="translate(.111 -15.258)" style="fill:#44b09b"/>
        </g>
    </g>
</svg>
