<svg xmlns="http://www.w3.org/2000/svg" width="52" height="52" viewBox="0 0 52 52">
    <g data-name="그룹 45488">
        <g data-name="그룹 45487">
            <path data-name="패스 13821" d="M274.43 221.961a1.421 1.421 0 0 0-2.693 0l-2.2 6.518a3.739 3.739 0 1 0 7.086 0zm-.618 8.235a.9.9 0 0 1-1.579-.81l.85-2.523.85 2.523a.893.893 0 0 1-.121.814z" transform="translate(-226.6 -185.882)" style="fill:#44b09b"/>
            <path data-name="패스 13822" d="M50.257 53.365v-5.458a6.638 6.638 0 0 0-6.63-6.631h-1.991v-2.047h1.529a1.421 1.421 0 1 0 0-2.842H37.63a1.421 1.421 0 1 0 0 2.842h1.17v2.047h-3.45a17.845 17.845 0 1 0-.257 8.051h7.113v4.038a1.42 1.42 0 0 0 .124 2.835h7.8a1.42 1.42 0 0 0 .124-2.835zM29.555 35.38h-6.33a19.415 19.415 0 0 0-3.231-5.48 15.006 15.006 0 0 1 9.561 5.48zm-15.93 7.947a22.864 22.864 0 0 1 .9-5.106H21.2a23.047 23.047 0 0 1 .863 5.106zm8.437 2.842a23.255 23.255 0 0 1-.888 5.106H14.5a23.017 23.017 0 0 1-.873-5.106zm-4.205-14.4a15.934 15.934 0 0 1 2.285 3.611H15.6a16.6 16.6 0 0 1 2.257-3.611zM15.718 29.9a19.9 19.9 0 0 0-3.23 5.484H6.135a15 15 0 0 1 9.583-5.484zM4.337 38.222h7.224a25.821 25.821 0 0 0-.782 5.106h-7.87a14.888 14.888 0 0 1 1.428-5.106zm0 13.053a14.888 14.888 0 0 1-1.428-5.106h7.871a26.084 26.084 0 0 0 .776 5.106zm1.8 2.842h6.345a19.355 19.355 0 0 0 3.255 5.483 15 15 0 0 1-9.602-5.484zm9.431 0h4.548a16.424 16.424 0 0 1-2.242 3.615 15.866 15.866 0 0 1-2.308-3.616zm4.454 5.477a19.756 19.756 0 0 0 3.2-5.477h6.336a15.007 15.007 0 0 1-9.538 5.476zm11.332-8.319h-7.219a26.247 26.247 0 0 0 .774-5.106h7.871a14.881 14.881 0 0 1-1.427 5.106zm-6.441-7.947a26.093 26.093 0 0 0-.768-5.106h7.209a14.888 14.888 0 0 1 1.428 5.106zm22.5 10.032h-2.365v-4.123a2.754 2.754 0 0 0-2.748-2.751h-6.695q.083-.858.085-1.738c0-.211-.005-.421-.012-.63h7.95a3.793 3.793 0 0 1 3.789 3.789z" transform="translate(.223 -22.433)" style="fill:#44b09b"/>
        </g>
    </g>
</svg>
