<svg xmlns="http://www.w3.org/2000/svg" width="52" height="52" viewBox="0 0 52 52">
    <g data-name="그룹 45494">
        <g data-name="그룹 45493">
            <path data-name="패스 13827" d="M47.4 87.282a1.823 1.823 0 0 0-3.228 0l-8.617 16.385a11.719 11.719 0 0 0 .251 11.4 11.449 11.449 0 0 0 9.551 5.744q.213.007.428.007t.427-.007a11.45 11.45 0 0 0 9.552-5.744 11.717 11.717 0 0 0 .251-11.4zm5.212 25.957a7.723 7.723 0 0 1-6.523 3.932c-.2.007-.4.007-.608 0a7.723 7.723 0 0 1-6.522-3.932 8.092 8.092 0 0 1-.177-7.875l7-13.316 7 13.316a8.092 8.092 0 0 1-.17 7.875z" transform="translate(-27.269 -68.823)" style="fill:#44b09b"/>
            <path data-name="패스 13828" d="m168.432 104.719-4.544-10.433a1.823 1.823 0 0 0-3.343 0L156 104.719a6.959 6.959 0 0 0 .469 6.442 6.656 6.656 0 0 0 5.381 3.2q.181.009.365.009t.366-.009a6.655 6.655 0 0 0 5.38-3.2 6.958 6.958 0 0 0 .471-6.442zm-3.569 4.522a3.056 3.056 0 0 1-2.464 1.477 3.622 3.622 0 0 1-.364 0 3.055 3.055 0 0 1-2.465-1.477 3.312 3.312 0 0 1-.226-3.066l2.873-6.6 2.873 6.6a3.312 3.312 0 0 1-.227 3.066z" transform="translate(-123.937 -74.312)" style="fill:#44b09b"/>
            <path data-name="패스 13829" d="M112.5 21.168q.182.009.367.009c.123 0 .245 0 .366-.009a6.656 6.656 0 0 0 5.38-3.2 6.958 6.958 0 0 0 .469-6.442L114.54 1.1a1.823 1.823 0 0 0-3.343 0l-4.544 10.433a6.959 6.959 0 0 0 .47 6.442 6.654 6.654 0 0 0 5.377 3.193zm-2.5-8.184 2.873-6.6 2.873 6.6a3.312 3.312 0 0 1-.226 3.066 3.057 3.057 0 0 1-2.466 1.477 3.592 3.592 0 0 1-.362 0 3.055 3.055 0 0 1-2.465-1.477 3.311 3.311 0 0 1-.227-3.066z" transform="translate(-84.587)" style="fill:#44b09b"/>
            <path data-name="패스 13830" d="M65.929 185.637a2.887 2.887 0 0 1-2.437-1.473 3.057 3.057 0 0 1-.068-2.975 1.823 1.823 0 0 0-3.228-1.7 6.683 6.683 0 0 0 .143 6.5 6.551 6.551 0 0 0 5.467 3.285h.063a1.823 1.823 0 0 0 .06-3.645z" transform="translate(-47.383 -142.353)" style="fill:#44b09b"/>
        </g>
    </g>
</svg>
