<svg xmlns="http://www.w3.org/2000/svg" width="52" height="52" viewBox="0 0 52 52">
    <g data-name="그룹 45490">
        <g data-name="그룹 45489">
            <path data-name="패스 13823" d="M51.636 24.9a9.388 9.388 0 0 0-7.487-3.756 9.246 9.246 0 0 0-1.9.2 16.808 16.808 0 0 0-1.466-3.544 9.244 9.244 0 0 0 1.484-1.2A9.387 9.387 0 0 0 44.9 8.65a1.836 1.836 0 0 0-1.549-1.55A9.386 9.386 0 0 0 35.4 9.735a9.239 9.239 0 0 0-1.2 1.485 16.8 16.8 0 0 0-3.547-1.472 9.248 9.248 0 0 0 .2-1.9A9.387 9.387 0 0 0 27.1.365a1.836 1.836 0 0 0-2.2 0 9.388 9.388 0 0 0-3.756 7.487 9.246 9.246 0 0 0 .2 1.9A16.8 16.8 0 0 0 17.8 11.22a9.239 9.239 0 0 0-1.2-1.485A9.386 9.386 0 0 0 8.651 7.1 1.836 1.836 0 0 0 7.1 8.65a9.387 9.387 0 0 0 2.636 7.95 9.245 9.245 0 0 0 1.484 1.2 16.811 16.811 0 0 0-1.471 3.545 9.248 9.248 0 0 0-1.9-.2A9.387 9.387 0 0 0 .366 24.9a1.836 1.836 0 0 0 0 2.2 9.388 9.388 0 0 0 7.487 3.756 9.246 9.246 0 0 0 1.9-.2 16.8 16.8 0 0 0 1.468 3.544 9.239 9.239 0 0 0-1.485 1.2A9.387 9.387 0 0 0 7.1 43.35a1.836 1.836 0 0 0 1.551 1.55 9.263 9.263 0 0 0 1.328.1 9.392 9.392 0 0 0 6.621-2.734 9.239 9.239 0 0 0 1.2-1.485 16.8 16.8 0 0 0 3.547 1.472 9.248 9.248 0 0 0-.2 1.9 9.387 9.387 0 0 0 3.753 7.483 1.836 1.836 0 0 0 2.2 0 9.388 9.388 0 0 0 3.756-7.487 9.246 9.246 0 0 0-.2-1.9 16.8 16.8 0 0 0 3.544-1.468 9.239 9.239 0 0 0 1.2 1.485A9.391 9.391 0 0 0 42.023 45a9.234 9.234 0 0 0 1.328-.1 1.836 1.836 0 0 0 1.549-1.549 9.388 9.388 0 0 0-2.634-7.951 9.239 9.239 0 0 0-1.485-1.2 16.8 16.8 0 0 0 1.472-3.547 9.248 9.248 0 0 0 1.9.2 9.387 9.387 0 0 0 7.483-3.753 1.836 1.836 0 0 0 0-2.2zM9.127 27.036a5.738 5.738 0 0 1-1.275.146A5.619 5.619 0 0 1 4.382 26a5.619 5.619 0 0 1 3.47-1.182 5.738 5.738 0 0 1 1.275.146c-.021.343-.035.688-.035 1.036s.014.694.035 1.036zM26 4.382a5.619 5.619 0 0 1 1.182 3.47 5.738 5.738 0 0 1-.146 1.275c-.343-.021-.688-.035-1.036-.035s-.693.014-1.036.035a5.728 5.728 0 0 1-.146-1.275A5.619 5.619 0 0 1 26 4.382zm-15.286 6.332A5.618 5.618 0 0 1 14 12.332a5.732 5.732 0 0 1 .8 1.012 17.072 17.072 0 0 0-1.463 1.463 5.773 5.773 0 0 1-1.011-.8 5.619 5.619 0 0 1-1.612-3.293zM14 39.67a5.622 5.622 0 0 1-3.29 1.617A5.618 5.618 0 0 1 12.332 38a5.738 5.738 0 0 1 1.012-.8 17.073 17.073 0 0 0 1.463 1.463A5.74 5.74 0 0 1 14 39.67zm12 7.949a5.619 5.619 0 0 1-1.182-3.47 5.738 5.738 0 0 1 .146-1.275c.343.021.688.035 1.036.035s.693-.014 1.036-.035a5.728 5.728 0 0 1 .146 1.275A5.619 5.619 0 0 1 26 47.619zm0-8.382A13.237 13.237 0 1 1 39.238 26 13.252 13.252 0 0 1 26 39.237zm15.287 2.05A5.618 5.618 0 0 1 38 39.669a5.732 5.732 0 0 1-.8-1.012 17.072 17.072 0 0 0 1.463-1.463 5.773 5.773 0 0 1 1.011.8 5.619 5.619 0 0 1 1.614 3.293zM39.67 14a5.738 5.738 0 0 1-1.012.8 17.072 17.072 0 0 0-1.458-1.457 5.739 5.739 0 0 1 .8-1.012 5.619 5.619 0 0 1 3.29-1.617A5.618 5.618 0 0 1 39.67 14zm4.48 13.179a5.738 5.738 0 0 1-1.275-.146c.021-.343.035-.688.035-1.036s-.014-.693-.035-1.036a5.738 5.738 0 0 1 1.275-.146A5.619 5.619 0 0 1 47.62 26a5.619 5.619 0 0 1-3.47 1.182z" transform="translate(-.001)" style="fill:#44b09b"/>
            <path data-name="패스 13824" d="M91.957 83.456a8.509 8.509 0 0 0-8.5 8.5 1.836 1.836 0 1 0 3.672 0 4.833 4.833 0 0 1 4.828-4.828 1.836 1.836 0 0 0 0-3.672z" transform="translate(-66.433 -66.432)" style="fill:#44b09b"/>
        </g>
    </g>
</svg>
