<svg xmlns="http://www.w3.org/2000/svg" width="52" height="52" viewBox="0 0 52 52">
    <g data-name="그룹 45486">
        <g data-name="그룹 45485">
            <g data-name="그룹 45484">
                <path data-name="패스 13819" d="M47.8 38.294V13.432a1.608 1.608 0 0 0-1.6-1.608H35.968a1.608 1.608 0 0 0-1.608 1.608v1.43A20.193 20.193 0 1 0 30.167 46.8v.1a10.918 10.918 0 1 0 17.64-8.6zM33.448 18.639h-7.164a21.976 21.976 0 0 0-3.657-6.2 16.982 16.982 0 0 1 10.821 6.2zm.912 3.216v5.778h-6.167a29.532 29.532 0 0 0-.87-5.778zm-18.94 5.779a25.886 25.886 0 0 1 1.017-5.778H24a26.083 26.083 0 0 1 .977 5.778H15.42zm9.549 3.216a26.319 26.319 0 0 1-1 5.778h-7.562a26.038 26.038 0 0 1-.988-5.778zm-4.76-16.3a18.037 18.037 0 0 1 2.591 4.089h-5.147a18.789 18.789 0 0 1 2.557-4.087zm-2.421-2.119a22.527 22.527 0 0 0-3.655 6.206h-7.19a16.981 16.981 0 0 1 10.846-6.204zM4.909 21.855h8.176a29.236 29.236 0 0 0-.885 5.778H3.293a16.849 16.849 0 0 1 1.616-5.778zm0 14.772a16.849 16.849 0 0 1-1.616-5.777H12.2a29.52 29.52 0 0 0 .879 5.778zm2.035 3.216h7.181a21.9 21.9 0 0 0 3.686 6.209 16.982 16.982 0 0 1-10.868-6.208zm10.674 0h5.147a18.6 18.6 0 0 1-2.538 4.092 17.944 17.944 0 0 1-2.61-4.091zM31.27 42.1a16.919 16.919 0 0 1-8.612 3.94 22.352 22.352 0 0 0 3.619-6.2h6.474a10.882 10.882 0 0 0-1.481 2.26zm-3.955-5.474a29.729 29.729 0 0 0 .876-5.778h6.17v5.778zM41.082 54.6a7.7 7.7 0 0 1-4.229-14.14 1.608 1.608 0 0 0 .723-1.343V15.04h7.012v24.077a1.608 1.608 0 0 0 .723 1.343 7.7 7.7 0 0 1-4.229 14.14z" transform="translate(0 -7.43)" style="fill:#44b09b"/>
                <path data-name="패스 13820" d="M212.716 77.9V53.039a1.608 1.608 0 1 0-3.216 0V77.9a4.1 4.1 0 1 0 3.216 0z" transform="translate(-170.026 -42.242)" style="fill:#44b09b"/>
            </g>
        </g>
    </g>
</svg>
