<svg xmlns="http://www.w3.org/2000/svg" width="52" height="52" viewBox="0 0 52 52">
    <g data-name="그룹 45500">
        <g data-name="그룹 45499" transform="translate(9.46)">
            <path data-name="패스 13842" d="m97.016 26.2-10.247-8.875a5.522 5.522 0 0 0-1.5-2.78 5.383 5.383 0 0 0-.283-.262L83.552 2.031a2.3 2.3 0 0 0-4.565 0l-1.446 12.388c-.044.042-.089.083-.132.126a5.519 5.519 0 0 0-1.477 2.64L65.523 26.2a2.3 2.3 0 0 0 2.569 3.773l10.042-5.247-.6 24.64h-2.865a1.315 1.315 0 1 0 0 2.631h13.384a1.315 1.315 0 1 0 0-2.631h-2.864l-.6-24.543 9.857 5.15a2.3 2.3 0 0 0 2.57-3.773zm-27.616.125 6.752-5.851a5.526 5.526 0 0 0 1.09 1.753zM81.27 5.168l.912 7.814a5.577 5.577 0 0 0-1.828.024zm-1.106 44.2L80.784 24q.274.027.553.027a5.656 5.656 0 0 0 .6-.033l.62 25.373h-2.393zM83.4 20.541a2.925 2.925 0 1 1 0-4.136 2.905 2.905 0 0 1 0 4.136zm1.981 1.733a5.52 5.52 0 0 0 1.1-1.714l6.653 5.765z" transform="translate(-64.73)" style="fill:#44b09b"/>
            <circle data-name="타원 1" cx="1.262" cy="1.262" r="1.262" transform="translate(15.345 17.211)" style="fill:#44b09b"/>
        </g>
    </g>
</svg>
