<svg xmlns="http://www.w3.org/2000/svg" width="52" height="52" viewBox="0 0 52 52">
    <g data-name="그룹 45502">
        <g data-name="그룹 45501">
            <path data-name="패스 13843" d="M41.838 82.983h21.713a5.679 5.679 0 1 0-5.679-5.683 1.413 1.413 0 0 0 2.825 0 2.854 2.854 0 1 1 2.854 2.854H41.838a1.413 1.413 0 1 0 0 2.825z" transform="translate(-34.08 -60.382)" style="fill:#44b09b"/>
            <path data-name="패스 13844" d="M146.314 187.315H124.6a1.413 1.413 0 1 0 0 2.825h21.714a2.854 2.854 0 1 1-2.854 2.854 1.413 1.413 0 0 0-2.825 0 5.679 5.679 0 1 0 5.679-5.679z" transform="translate(-103.853 -157.915)" style="fill:#44b09b"/>
            <path data-name="패스 13845" d="M44.388 79.094a7.621 7.621 0 0 0-7.612 7.612 1.413 1.413 0 0 0 2.825 0 4.787 4.787 0 1 1 4.787 4.787H1.413a1.413 1.413 0 1 0 0 2.825h42.975a7.612 7.612 0 0 0 0-15.224z" transform="translate(0 -66.68)" style="fill:#44b09b"/>
            <path data-name="패스 13846" d="M82.859 187.315H80.2a1.413 1.413 0 1 0 0 2.825h2.662a1.413 1.413 0 1 0 0-2.825z" transform="translate(-66.419 -157.915)" style="fill:#44b09b"/>
            <path data-name="패스 13847" d="M14.4 128.818h.523a1.413 1.413 0 1 0 0-2.825H14.4a1.413 1.413 0 1 0 0 2.825z" transform="translate(-10.949 -106.218)" style="fill:#44b09b"/>
        </g>
    </g>
</svg>
