<svg xmlns="http://www.w3.org/2000/svg" width="57.006" height="57" viewBox="0 0 57.006 57">
    <path data-name="패스 13837" d="M42.963 17.953A12.628 12.628 0 0 0 32.079 7.135 12.961 12.961 0 0 0 18.4 14.429a10.222 10.222 0 0 0-1.734-.153A10.573 10.573 0 0 0 5.809 24.507 8.544 8.544 0 0 0 6 26.292a10.1 10.1 0 0 0-6 9.129 10.573 10.573 0 0 0 10.859 10.232h30.978a14.339 14.339 0 0 0 14.731-13.87 14.262 14.262 0 0 0-13.605-13.83zm-1.126 25.426H10.859a8.255 8.255 0 0 1-8.5-7.958A7.933 7.933 0 0 1 7.8 28.02a1.129 1.129 0 0 0 .718-1.38 7.344 7.344 0 0 1-.354-2.132 8.255 8.255 0 0 1 8.5-7.958 8.943 8.943 0 0 1 2.184.3 1.18 1.18 0 0 0 1.416-.748 10.52 10.52 0 0 1 11.471-6.716 10.248 10.248 0 0 1 8.923 9.665 1.158 1.158 0 0 0 1.179 1.137 12.02 12.02 0 0 1 12.374 11.6 12.02 12.02 0 0 1-12.374 11.6z" transform="translate(.438 3.396)" style="fill:#005e63"/>
    <path data-name="패스 13838" d="M19.465 28.966a3.155 3.155 0 1 1-.005-4.219 1.137 1.137 0 1 0 1.694-1.517 5.418 5.418 0 1 0-.006 7.263 1.137 1.137 0 1 0-1.683-1.528z" transform="translate(2.635 5.372)" style="fill:#005e63"/>
    <path data-name="패스 13839" d="M26.048 21.32a5.389 5.389 0 1 0 5.389 5.389 5.388 5.388 0 0 0-5.389-5.389zm0 8.5a3.115 3.115 0 1 1 3.115-3.115 3.115 3.115 0 0 1-3.115 3.119z" transform="translate(4.338 5.356)" style="fill:#005e63"/>
    <path data-name="패스 13840" d="M36.158 32.5h-1.28a5.718 5.718 0 0 0 1.869-3.263 2.9 2.9 0 0 0-.958-2.363c-1.36-1.2-3.4-.658-4.62.461a1.137 1.137 0 1 0 1.531 1.68c.523-.481 1.292-.686 1.584-.432a.634.634 0 0 1 .192.482c-.067.876-1.828 2.578-3.433 3.619a1.137 1.137 0 0 0 .618 2.091h4.493a1.137 1.137 0 0 0 0-2.274z" transform="translate(6.068 6.023)" style="fill:#005e63"/>
    <path data-name="패스 13841" d="M32.438 19.64a1.137 1.137 0 0 0 1.137-1.14 7.662 7.662 0 0 0-7.8-7.5 1.137 1.137 0 0 0 0 2.274A5.387 5.387 0 0 1 31.3 18.5a1.137 1.137 0 0 0 1.138 1.14z" transform="translate(5.038 3.943)" style="fill:#005e63"/>
</svg>
