<svg xmlns="http://www.w3.org/2000/svg" width="60" height="60" viewBox="0 0 60 60">
    <path data-name="패스 13912" d="M85.833 28.939V6.828a6.829 6.829 0 0 0-13.658 0v22.11a11.274 11.274 0 1 0 13.658 0zM79 46.221a8.318 8.318 0 0 1-4.547-15.288 1.474 1.474 0 0 0 .666-1.233V6.828a3.881 3.881 0 0 1 7.762 0V29.7a1.474 1.474 0 0 0 .666 1.233A8.318 8.318 0 0 1 79 46.221z" transform="translate(-49.277 5.168)" style="fill:#005e63"/>
    <path data-name="패스 13913" d="M106.538 83.377V63.9a1.474 1.474 0 0 0-2.948 0v19.477a4.9 4.9 0 1 0 2.948 0z" transform="translate(-75.338 -44.988)" style="fill:#005e63"/>
</svg>
