<svg xmlns="http://www.w3.org/2000/svg" width="60" height="60" viewBox="0 0 60 60">
    <path data-name="패스 13918" d="M32 34.8V13a9 9 0 0 0-18 0v21.8a14.308 14.308 0 0 0-5 10.7 14 14 0 1 0 23-10.7zm-9 20.7a9.97 9.97 0 0 1-5.8-18.1 2.088 2.088 0 0 0 .8-1.6V13a5 5 0 1 1 10 0v22.8a2.088 2.088 0 0 0 .8 1.6A9.97 9.97 0 0 1 23 55.5z" style="fill:#005e63" transform="translate(-2 -2)"/>
    <path data-name="패스 13919" d="M25 41.2V21.8a2 2 0 1 0-4 0v19.4a5.007 5.007 0 1 0 7 4.6 4.848 4.848 0 0 0-3-4.6z" style="fill:#005e63" transform="translate(-2 -2)"/>
    <path data-name="패스 13920" d="M53.5 18.1 47.8 7.8a2.12 2.12 0 0 0-3.6 0l-5.7 10.4a8.473 8.473 0 1 0 15-.1zm-3.6 6.4a4.557 4.557 0 0 1-7.8 0A4.784 4.784 0 0 1 42 20l4-7.1 3.9 7.2a4.332 4.332 0 0 1 0 4.4z" style="fill:#005e63" transform="translate(-2 -2)"/>
</svg>
