<svg xmlns="http://www.w3.org/2000/svg" width="24" height="24" viewBox="0 0 24 24">
    <path d="M12.593 2a1.431 1.431 0 0 0-1.424 1.424v1.423H6.424A1.431 1.431 0 0 0 5 6.271v.949a1.431 1.431 0 0 0 1.424 1.424H21.61a1.431 1.431 0 0 0 1.423-1.424v-.949a1.431 1.431 0 0 0-1.423-1.424h-4.746V3.424A1.431 1.431 0 0 0 15.44 2zm0 .949h2.847a.463.463 0 0 1 .475.475v1.423h-3.8V3.424a.463.463 0 0 1 .478-.475z" transform="translate(-2.016 -.44)" style="fill:#1d3740"/>
    <path d="M6.424 8A1.431 1.431 0 0 0 5 9.424v.949A1.431 1.431 0 0 0 6.424 11.8H21.61a1.431 1.431 0 0 0 1.424-1.424v-.952A1.431 1.431 0 0 0 21.61 8z" transform="translate(-2.016 -3.593)" style="fill:#1d3740"/>
    <path d="M8.98 18v11.39a1.859 1.859 0 0 0 1.806 1.9H21.43a1.859 1.859 0 0 0 1.806-1.9V18zm6.653 1.9h.949v9.49h-.949zm-2.847.949h.949v7.591h-.949zm5.695 0h.949v7.591h-.949z" transform="translate(-4.107 -8.847)" style="fill:#1d3740"/>
</svg>
