<svg xmlns="http://www.w3.org/2000/svg" width="60" height="60" viewBox="0 0 60 60">
    <g data-name="그룹 45922">
        <path data-name="패스 13914" d="M25.372 1.994a1.9 1.9 0 0 0-3.012 0s-8.8 11.484-14.073 21.773C5.89 28.439 4.25 32.9 4.25 36.053a19.616 19.616 0 0 0 39.232 0c0-3.151-1.64-7.614-4.037-12.286C34.168 13.478 25.372 1.994 25.372 1.994zm-1.506 4.331A158.787 158.787 0 0 1 36.069 25.5c2.068 4.03 3.617 7.834 3.617 10.552a15.819 15.819 0 1 1-31.639 0c0-2.718 1.549-6.523 3.617-10.552a158.787 158.787 0 0 1 12.2-19.176z" transform="translate(5.75 1.75)" style="fill:#005e63;fill-rule:evenodd"/>
        <path data-name="패스 13915" d="M12.179 11.282a4.429 4.429 0 1 0 4.429 4.429 4.431 4.431 0 0 0-4.429-4.429zm0 3.8a.633.633 0 1 1-.633.633.633.633 0 0 1 .633-.636z" transform="translate(11.109 17.11)" style="fill:#005e63;fill-rule:evenodd"/>
        <path data-name="패스 13916" d="M17.147 15.25a4.429 4.429 0 1 0 4.429 4.429 4.431 4.431 0 0 0-4.429-4.429zm0 3.8a.633.633 0 1 1-.633.633.633.633 0 0 1 .633-.636z" transform="translate(18.715 23.186)" style="fill:#005e63;fill-rule:evenodd"/>
        <path data-name="패스 13917" d="M24.072 11.806 8.806 27.072a1.9 1.9 0 1 0 2.683 2.686l15.268-15.269a1.9 1.9 0 1 0-2.686-2.683z" transform="translate(11.875 17.062)" style="fill:#005e63;fill-rule:evenodd"/>
    </g>
</svg>
