<svg xmlns="http://www.w3.org/2000/svg" width="57.378" height="57" viewBox="0 0 57.378 57">
    <g data-name="그룹 45498">
        <g data-name="그룹 45497">
            <path data-name="패스 13835" d="M59.832 57.122a21.261 21.261 0 1 0 21.26 21.261 21.285 21.285 0 0 0-21.26-21.261zm13.951 10.1h-7.541a23.13 23.13 0 0 0-3.85-6.529 17.878 17.878 0 0 1 11.391 6.528zM54.8 76.69a27.251 27.251 0 0 1 1.071-6.083h7.958a27.458 27.458 0 0 1 1.029 6.083zm10.052 3.386a27.706 27.706 0 0 1-1.052 6.082h-7.957a27.421 27.421 0 0 1-1.04-6.083zm-5.01-17.157a18.99 18.99 0 0 1 2.722 4.3h-5.409a19.781 19.781 0 0 1 2.691-4.301zM57.3 60.688a23.715 23.715 0 0 0-3.848 6.533H45.88a17.878 17.878 0 0 1 11.42-6.533zm-13.562 9.919h8.607a30.764 30.764 0 0 0-.932 6.083h-9.376a17.739 17.739 0 0 1 1.701-6.083zm0 15.552a17.738 17.738 0 0 1-1.7-6.083h9.378a31.065 31.065 0 0 0 .925 6.083zm2.142 3.386h7.56a23.06 23.06 0 0 0 3.88 6.536 17.878 17.878 0 0 1-11.44-6.537zm11.236 0h5.419a19.575 19.575 0 0 1-2.672 4.308 18.9 18.9 0 0 1-2.746-4.309zm5.306 6.525a23.536 23.536 0 0 0 3.81-6.525h7.549a17.878 17.878 0 0 1-11.358 6.524zm13.5-9.911h-8.6a31.271 31.271 0 0 0 .923-6.083h9.378a17.738 17.738 0 0 1-1.698 6.082zm1.7-9.469h-9.371a31.088 31.088 0 0 0-.915-6.083h8.589a17.739 17.739 0 0 1 1.701 6.083z" transform="translate(-31.316 -46.755)" style="fill:#005e63"/>
            <path data-name="패스 13836" d="M28.6 18.555H28.151A28.549 28.549 0 0 0 0 47.068a1.693 1.693 0 0 0 3.386 0 25.158 25.158 0 0 1 24.992-25.129A25.158 25.158 0 0 1 53.37 47.068a1.693 1.693 0 0 0 3.386 0A28.549 28.549 0 0 0 28.6 18.555z" transform="translate(0 -15.441)" style="fill:#005e63"/>
        </g>
    </g>
</svg>
