<svg xmlns="http://www.w3.org/2000/svg" width="20" height="20" viewBox="0 0 20 20">
    <path data-name="패스 13859" d="M12.494 4.793 1.363 15.925a.443.443 0 0 0-.116.2L.013 21.081a.438.438 0 0 0 .531.531L5.5 20.378a.438.438 0 0 0 .2-.116L16.832 9.131z" transform="translate(0 -1.625)" style="fill:#1d3740"/>
    <path data-name="패스 13860" d="m21.528 2.8-1.239-1.241a2.244 2.244 0 0 0-3.1 0l-1.517 1.518 4.338 4.338L21.528 5.9a2.192 2.192 0 0 0 0-3.1z" transform="translate(-2.169 -.939)" style="fill:#1d3740"/>
</svg>
