<svg xmlns="http://www.w3.org/2000/svg" width="18" height="18" viewBox="0 0 18 18">
    <path data-name="패스 13803" d="M14.75 6.318V5.25a5.25 5.25 0 1 0-10.5 0v1.068A3.75 3.75 0 0 0 2 9.75v4.5A3.754 3.754 0 0 0 5.75 18h7.5A3.755 3.755 0 0 0 17 14.25v-4.5a3.75 3.75 0 0 0-2.25-3.432zm-9-1.068a3.75 3.75 0 1 1 7.5 0V6h-7.5zm9.75 9a2.25 2.25 0 0 1-2.25 2.25h-7.5a2.25 2.25 0 0 1-2.25-2.25v-4.5A2.25 2.25 0 0 1 5.75 7.5h7.5a2.25 2.25 0 0 1 2.25 2.25z" transform="translate(-.5)" style="fill:#767676"/>
    <path data-name="패스 13804" d="M11.75 14a.75.75 0 0 0-.75.75v1.5a.75.75 0 1 0 1.5 0v-1.5a.75.75 0 0 0-.75-.75z" transform="translate(-2.75 -3.5)" style="fill:#767676"/>
</svg>
