<svg xmlns="http://www.w3.org/2000/svg" width="58" height="58" viewBox="0 0 58 58">
    <g data-name="그룹 45494">
        <g data-name="그룹 45493">
            <path data-name="패스 13827" d="M47.7 87.3a1.865 1.865 0 0 0-3.3 0l-8.816 16.763a11.989 11.989 0 0 0 .257 11.667 11.714 11.714 0 0 0 9.771 5.876q.218.007.438.007t.437-.007a11.714 11.714 0 0 0 9.772-5.876 11.988 11.988 0 0 0 .257-11.667zm5.333 26.556a7.9 7.9 0 0 1-6.673 4.022 9.214 9.214 0 0 1-.622 0 7.9 7.9 0 0 1-6.673-4.022 8.278 8.278 0 0 1-.181-8.057l7.169-13.619 7.164 13.62a8.278 8.278 0 0 1-.18 8.06z" transform="translate(-26.709 -64.195)" style="fill:#005e63"/>
            <path data-name="패스 13828" d="m168.732 104.985-4.649-10.673a1.865 1.865 0 0 0-3.42 0l-4.649 10.673a7.12 7.12 0 0 0 .48 6.591 6.809 6.809 0 0 0 5.506 3.272q.186.009.373.009t.375-.01a6.809 6.809 0 0 0 5.5-3.272 7.119 7.119 0 0 0 .484-6.59zm-3.652 4.626a3.126 3.126 0 0 1-2.521 1.511 3.717 3.717 0 0 1-.372 0 3.126 3.126 0 0 1-2.522-1.511 3.388 3.388 0 0 1-.232-3.136l2.939-6.747 2.939 6.747a3.389 3.389 0 0 1-.231 3.136z" transform="translate(-118.986 -71.134)" style="fill:#005e63"/>
            <path data-name="패스 13829" d="M112.65 21.657q.187.01.376.01c.126 0 .251 0 .375-.01a6.809 6.809 0 0 0 5.5-3.272 7.118 7.118 0 0 0 .48-6.591L114.736 1.12a1.865 1.865 0 0 0-3.42 0l-4.649 10.673a7.119 7.119 0 0 0 .48 6.591 6.807 6.807 0 0 0 5.503 3.273zm-2.564-8.373 2.939-6.748 2.939 6.747a3.388 3.388 0 0 1-.231 3.136 3.127 3.127 0 0 1-2.523 1.511 3.675 3.675 0 0 1-.37 0 3.126 3.126 0 0 1-2.522-1.511 3.388 3.388 0 0 1-.231-3.135z" transform="translate(-81.423 .4)" style="fill:#005e63"/>
            <path data-name="패스 13830" d="M66.079 185.8a2.954 2.954 0 0 1-2.493-1.507 3.127 3.127 0 0 1-.069-3.044 1.865 1.865 0 0 0-3.3-1.736 6.837 6.837 0 0 0 .146 6.654 6.7 6.7 0 0 0 5.593 3.361h.064a1.865 1.865 0 0 0 .062-3.729z" transform="translate(-46.705 -137.294)" style="fill:#005e63"/>
        </g>
    </g>
</svg>
