<svg xmlns="http://www.w3.org/2000/svg" width="57" height="57" viewBox="0 0 57 57">
    <g data-name="그룹 45618">
        <g data-name="그룹 45488">
            <g data-name="그룹 45487">
                <path data-name="패스 13821" d="M276.942 222.439a2.123 2.123 0 0 0-4.023 0l-3.282 9.738a5.586 5.586 0 1 0 10.587 0zm-.923 12.3a1.341 1.341 0 0 1-2.359-1.21l1.27-3.769 1.27 3.769a1.334 1.334 0 0 1-.181 1.214z" transform="translate(-225.932 -185.866)" style="fill:#005e63"/>
                <path data-name="패스 13822" d="M54.67 56.546v-6.115A7.331 7.331 0 0 0 47.458 43h-2.166v-2.289h1.663a1.592 1.592 0 0 0 0-3.183h-6.02a1.592 1.592 0 0 0 0 3.183H42.2V43h-3.746a19.6 19.6 0 0 0-19.042-16.1C8.708 26.9 0 35.87 0 46.893s8.708 19.99 19.412 19.99a19.553 19.553 0 0 0 18.762-14.86h7.738v4.523a1.594 1.594 0 0 0 .135 3.176h8.489a1.594 1.594 0 0 0 .135-3.176zM32.15 36.4h-6.886a21.9 21.9 0 0 0-3.515-6.139A16.226 16.226 0 0 1 32.15 36.4zm-17.328 8.9a26.3 26.3 0 0 1 .978-5.719h7.266a26.517 26.517 0 0 1 .939 5.719zM24 48.484a26.753 26.753 0 0 1-.966 5.719H15.77a26.481 26.481 0 0 1-.949-5.719zm-4.575-16.131a17.93 17.93 0 0 1 2.486 4.047h-4.943a18.689 18.689 0 0 1 2.457-4.047zm-2.327-2.1a22.451 22.451 0 0 0-3.513 6.147H6.674A16.224 16.224 0 0 1 17.1 30.256zm-12.38 9.329h7.858a29.722 29.722 0 0 0-.851 5.719h-8.56a17.06 17.06 0 0 1 1.553-5.719zm0 14.622a17.06 17.06 0 0 1-1.553-5.719h8.562a30.026 30.026 0 0 0 .844 5.719zm1.956 3.183h6.9a21.824 21.824 0 0 0 3.543 6.146 16.223 16.223 0 0 1-10.443-6.146zm10.259 0h4.947a18.494 18.494 0 0 1-2.439 4.05 17.848 17.848 0 0 1-2.508-4.05zm4.845 6.135a22.29 22.29 0 0 0 3.479-6.135h6.893a16.228 16.228 0 0 1-10.372 6.135zM34.106 54.2h-7.852a30.214 30.214 0 0 0 .842-5.719h8.562a17.052 17.052 0 0 1-1.552 5.719zM27.1 45.3a30.037 30.037 0 0 0-.836-5.719h7.842a17.06 17.06 0 0 1 1.553 5.719zm24.48 11.238H49v-4.617a3.041 3.041 0 0 0-2.992-3.082h-7.28q.091-.961.092-1.947c0-.236-.005-.471-.013-.705h8.648a4.189 4.189 0 0 1 4.121 4.244z" transform="translate(.827 -24.212)" style="fill:#005e63"/>
            </g>
        </g>
    </g>
</svg>
