<svg xmlns="http://www.w3.org/2000/svg" width="57.499" height="57" viewBox="0 0 57.499 57">
    <g data-name="그룹 45486">
        <g data-name="그룹 45485">
            <g data-name="그룹 45484">
                <path data-name="패스 13819" d="M51.968 40.842V13.814a1.748 1.748 0 0 0-1.748-1.748H39.1a1.748 1.748 0 0 0-1.748 1.748v1.554a21.952 21.952 0 1 0-4.559 34.719v.105a11.869 11.869 0 1 0 19.177-9.351zM36.361 19.475h-7.787a23.891 23.891 0 0 0-3.974-6.743 18.461 18.461 0 0 1 11.761 6.743zm.992 3.5v6.282h-6.7a32.1 32.1 0 0 0-.945-6.282zm-20.59 6.282a28.141 28.141 0 0 1 1.106-6.282h8.218a28.355 28.355 0 0 1 1.062 6.282H16.764zm10.381 3.5a28.611 28.611 0 0 1-1.092 6.282h-8.215a28.307 28.307 0 0 1-1.074-6.282zM21.97 15.032a19.609 19.609 0 0 1 2.811 4.443h-5.59a20.426 20.426 0 0 1 2.779-4.443zm-2.632-2.3a24.489 24.489 0 0 0-3.973 6.747H7.548a18.46 18.46 0 0 1 11.791-6.751zm-14 10.243h8.888a31.782 31.782 0 0 0-.962 6.282H3.58a18.317 18.317 0 0 1 1.756-6.286zm0 16.059a18.317 18.317 0 0 1-1.758-6.285h9.684a32.091 32.091 0 0 0 .955 6.282zm2.212 3.5h7.807a23.812 23.812 0 0 0 4.007 6.75 18.461 18.461 0 0 1-11.816-6.757zm11.6 0h5.6a20.214 20.214 0 0 1-2.759 4.448 19.507 19.507 0 0 1-2.839-4.455zm14.842 2.455a18.393 18.393 0 0 1-9.362 4.283 24.3 24.3 0 0 0 3.934-6.738H35.6a11.83 11.83 0 0 0-1.606 2.448zm-4.3-5.951a32.319 32.319 0 0 0 .953-6.282h6.707v6.274zm14.969 19.528a8.372 8.372 0 0 1-4.6-15.369 1.748 1.748 0 0 0 .786-1.46V15.562h7.623v26.175a1.748 1.748 0 0 0 .786 1.46 8.372 8.372 0 0 1-4.6 15.369z" transform="translate(0 -6.825)" style="fill:#005e63"/>
                <path data-name="패스 13820" d="M213.213 80.207V53.179a1.748 1.748 0 1 0-3.5 0v27.028a4.452 4.452 0 1 0 3.5 0z" transform="translate(-166.804 -40.977)" style="fill:#005e63"/>
            </g>
        </g>
    </g>
</svg>
