<svg xmlns="http://www.w3.org/2000/svg" width="18" height="18" viewBox="0 0 18 18">
    <g data-name="user (1)">
        <path data-name="패스 13801" d="M10.5 9A4.5 4.5 0 1 0 6 4.5 4.5 4.5 0 0 0 10.5 9zm0-7.5a3 3 0 1 1-3 3 3 3 0 0 1 3-3z" transform="translate(-1.5)" style="fill:#767676"/>
        <path data-name="패스 13802" d="M9.75 14A6.757 6.757 0 0 0 3 20.75a.75.75 0 1 0 1.5 0 5.25 5.25 0 0 1 10.5 0 .75.75 0 0 0 1.5 0A6.757 6.757 0 0 0 9.75 14z" transform="translate(-.75 -3.5)" style="fill:#767676"/>
    </g>
</svg>
