<svg xmlns="http://www.w3.org/2000/svg" width="58" height="58" viewBox="0 0 58 58">
    <g data-name="그룹 45502">
        <g data-name="그룹 45501">
            <path data-name="패스 13843" d="M41.87 83.245h22.215a5.81 5.81 0 1 0-5.81-5.81 1.445 1.445 0 0 0 2.89 0 2.92 2.92 0 1 1 2.92 2.92H41.87a1.445 1.445 0 0 0 0 2.89z" transform="translate(-33.375 -57.802)" style="fill:#005e63"/>
            <path data-name="패스 13844" d="M146.848 187.315h-22.215a1.445 1.445 0 1 0 0 2.89h22.215a2.92 2.92 0 1 1-2.92 2.92 1.445 1.445 0 0 0-2.89 0 5.81 5.81 0 1 0 5.81-5.81z" transform="translate(-99.007 -154.916)" style="fill:#005e63"/>
            <path data-name="패스 13845" d="M48.691 79.094a8.093 8.093 0 0 0-8.35 7.788 1.553 1.553 0 0 0 3.1 0 5.264 5.264 0 1 1 5.251 4.9H1.55a1.449 1.449 0 1 0 0 2.89h47.141a7.807 7.807 0 1 0 0-15.576z" transform="translate(.559 -64.073)" style="fill:#005e63"/>
            <path data-name="패스 13846" d="M82.953 187.315H80.23a1.445 1.445 0 1 0 0 2.89h2.723a1.445 1.445 0 1 0 0-2.89z" transform="translate(-64.554 -154.916)" style="fill:#005e63"/>
            <path data-name="패스 13847" d="M14.432 128.883h.535a1.445 1.445 0 1 0 0-2.89h-.535a1.445 1.445 0 1 0 0 2.89z" transform="translate(-10.343 -103.441)" style="fill:#005e63"/>
        </g>
    </g>
</svg>
