<svg xmlns="http://www.w3.org/2000/svg" width="57" height="57.5" viewBox="0 0 57 57.5">
    <g data-name="그룹 45500">
        <g data-name="그룹 45499" transform="translate(9.87)">
            <path data-name="패스 13842" d="m100.12 28.723-11.231-9.732a6.053 6.053 0 0 0-1.649-3.047 4.7 4.7 0 0 0-.31-.287l-1.568-13.43a2.519 2.519 0 0 0-5 0l-1.59 13.579c-.049.045-.1.091-.145.138a6.05 6.05 0 0 0-1.619 2.893L65.6 28.723a2.519 2.519 0 0 0 2.816 4.136l11.008-5.752-.66 27.009h-3.139a1.442 1.442 0 0 0 0 2.884H90.3a1.442 1.442 0 1 0 0-2.884h-3.143l-.657-26.9 10.8 5.646a2.519 2.519 0 0 0 2.816-4.136zm-30.27.133 7.4-6.413a6.058 6.058 0 0 0 1.195 1.922zM82.86 5.665l1 8.565a6.113 6.113 0 0 0-2 .026zm-1.212 48.451.68-27.807q.3.03.606.03a6.2 6.2 0 0 0 .659-.036l.68 27.813zm3.552-31.6a3.206 3.206 0 1 1 0-4.534 3.185 3.185 0 0 1 0 4.535zm2.172 1.9a6.051 6.051 0 0 0 1.2-1.879l7.293 6.319z" transform="translate(-64.73)" style="fill:#005e63"/>
            <circle data-name="타원 1" cx="1.383" cy="1.383" r="1.383" transform="translate(16.82 18.866)" style="fill:#005e63"/>
        </g>
    </g>
</svg>
