<svg xmlns="http://www.w3.org/2000/svg" width="28" height="28" viewBox="0 0 28 28">
    <g data-name="그룹 342">
        <path data-name="패스 854" d="M.9 0a.907.907 0 0 1 .9.913l.021 16.408a.9.9 0 0 1-.9.91.907.907 0 0 1-.9-.913L0 .91A.9.9 0 0 1 .9 0z" transform="rotate(45 1.558 27.363)" style="fill:#202428"/>
        <path data-name="패스 855" d="M.919 0a.9.9 0 0 1 .9.91l-.026 16.408a.907.907 0 0 1-.9.913.9.9 0 0 1-.9-.91L.021.913A.907.907 0 0 1 .919 0z" transform="rotate(135 6.442 14.27)" style="fill:#202428"/>
    </g>
</svg>
